<?xml version="1.0" encoding="UTF-8"?>
<svg xmlns="http://www.w3.org/2000/svg" xmlns:xlink="http://www.w3.org/1999/xlink" width="43px" height="43px" viewBox="0 0 16 16" version="1.1">
<g id="surface1">
<path style=" stroke:none;fill-rule:nonzero;fill:rgb(100%,100%,100%);fill-opacity:1;" d="M 8.367188 8 L 15.921875 0.4375 C 16.023438 0.339844 16.023438 0.175781 15.921875 0.078125 C 15.824219 -0.0234375 15.660156 -0.0234375 15.5625 0.078125 L 8 7.632812 L 0.445312 0.078125 C 0.34375 -0.0234375 0.179688 -0.0234375 0.078125 0.0820312 C -0.015625 0.179688 -0.015625 0.339844 0.078125 0.4375 L 7.636719 8 L 0.078125 15.554688 C -0.0234375 15.65625 -0.0273438 15.820312 0.0703125 15.921875 C 0.171875 16.023438 0.335938 16.027344 0.4375 15.929688 C 0.4375 15.925781 0.441406 15.921875 0.445312 15.921875 L 8 8.363281 L 15.5625 15.921875 C 15.664062 16.019531 15.828125 16.015625 15.921875 15.914062 C 16.023438 15.8125 16.023438 15.65625 15.921875 15.554688 Z M 8.367188 8 "/>
</g>
</svg>
