<?xml version="1.0" encoding="UTF-8"?>
<svg xmlns="http://www.w3.org/2000/svg" xmlns:xlink="http://www.w3.org/1999/xlink" width="32pt" height="32pt" viewBox="0 0 32 32" version="1.1">
<g id="surface1">
<path style=" stroke:none;fill-rule:nonzero;fill:rgb(100%,100%,100%);fill-opacity:1;" d="M 16.734375 15.996094 L 31.847656 0.878906 C 32.050781 0.679688 32.050781 0.351562 31.847656 0.152344 C 31.648438 -0.0507812 31.320312 -0.0507812 31.121094 0.152344 L 16.003906 15.265625 L 0.886719 0.152344 C 0.683594 -0.046875 0.355469 -0.0429688 0.15625 0.164062 C -0.0351562 0.363281 -0.0351562 0.679688 0.15625 0.878906 L 15.273438 15.996094 L 0.15625 31.113281 C -0.046875 31.3125 -0.0546875 31.636719 0.144531 31.84375 C 0.34375 32.046875 0.667969 32.054688 0.875 31.855469 C 0.878906 31.851562 0.882812 31.847656 0.886719 31.84375 L 16.003906 16.726562 L 31.121094 31.84375 C 31.324219 32.039062 31.652344 32.035156 31.847656 31.828125 C 32.042969 31.628906 32.042969 31.3125 31.847656 31.113281 Z M 16.734375 15.996094 "/>
</g>
</svg>
