<?xml version="1.0" encoding="UTF-8"?>
<svg xmlns="http://www.w3.org/2000/svg" xmlns:xlink="http://www.w3.org/1999/xlink" width="32pt" height="32pt" viewBox="0 0 32 32" version="1.1">
<g id="surface1">
<path style=" stroke:none;fill-rule:nonzero;fill:rgb(100%,100%,100%);fill-opacity:1;" d="M 16 0 C 7.164062 0 0 7.164062 0 16 C 0 24.835938 7.164062 32 16 32 C 24.835938 32 32 24.835938 32 16 C 31.988281 7.167969 24.832031 0.0117188 16 0 Z M 16 30.96875 C 7.734375 30.96875 1.03125 24.265625 1.03125 16 C 1.03125 7.734375 7.734375 1.03125 16 1.03125 C 24.265625 1.03125 30.96875 7.734375 30.96875 16 C 30.957031 24.261719 24.261719 30.957031 16 30.96875 Z M 16 30.96875 "/>
<path style=" stroke:none;fill-rule:nonzero;fill:rgb(100%,100%,100%);fill-opacity:1;" d="M 23.300781 8.699219 C 23.097656 8.5 22.769531 8.5 22.570312 8.699219 L 16 15.269531 L 9.429688 8.699219 C 9.234375 8.496094 8.90625 8.488281 8.699219 8.6875 C 8.496094 8.886719 8.488281 9.214844 8.6875 9.417969 C 8.691406 9.421875 8.695312 9.425781 8.699219 9.429688 L 15.269531 16 L 8.699219 22.570312 C 8.496094 22.765625 8.488281 23.09375 8.6875 23.300781 C 8.886719 23.503906 9.214844 23.511719 9.417969 23.3125 C 9.421875 23.308594 9.425781 23.304688 9.429688 23.300781 L 16 16.730469 L 22.570312 23.300781 C 22.773438 23.496094 23.101562 23.492188 23.300781 23.285156 C 23.492188 23.085938 23.492188 22.769531 23.300781 22.570312 L 16.730469 16 L 23.300781 9.429688 C 23.5 9.230469 23.5 8.902344 23.300781 8.699219 Z M 23.300781 8.699219 "/>
</g>
</svg>
