<?xml version="1.0" encoding="UTF-8"?>
<svg xmlns="http://www.w3.org/2000/svg" xmlns:xlink="http://www.w3.org/1999/xlink" width="32pt" height="32pt" viewBox="0 0 32 32" version="1.1">
<g id="surface1">
<path style=" stroke:none;fill-rule:nonzero;fill:rgb(100%,100%,100%);fill-opacity:1;" d="M 31.484375 12.902344 L 29.058594 12.902344 C 28.730469 11.507812 28.175781 10.175781 27.421875 8.957031 L 29.136719 7.242188 C 29.339844 7.039062 29.339844 6.710938 29.136719 6.511719 L 25.488281 2.863281 C 25.289062 2.660156 24.960938 2.660156 24.757812 2.863281 L 23.042969 4.578125 C 21.824219 3.824219 20.492188 3.269531 19.097656 2.941406 L 19.097656 0.515625 C 19.097656 0.230469 18.867188 0 18.582031 0 L 13.417969 0 C 13.132812 0 12.902344 0.230469 12.902344 0.515625 L 12.902344 2.941406 C 11.507812 3.269531 10.175781 3.824219 8.957031 4.578125 L 7.242188 2.863281 C 7.039062 2.660156 6.710938 2.660156 6.511719 2.863281 L 2.863281 6.511719 C 2.660156 6.710938 2.660156 7.039062 2.863281 7.242188 L 4.578125 8.957031 C 3.824219 10.175781 3.269531 11.507812 2.941406 12.902344 L 0.515625 12.902344 C 0.230469 12.902344 0 13.132812 0 13.417969 L 0 18.582031 C 0 18.867188 0.230469 19.097656 0.515625 19.097656 L 2.941406 19.097656 C 3.269531 20.492188 3.824219 21.824219 4.578125 23.042969 L 2.863281 24.757812 C 2.660156 24.960938 2.660156 25.289062 2.863281 25.488281 L 6.511719 29.136719 C 6.714844 29.332031 7.035156 29.332031 7.242188 29.136719 L 8.957031 27.421875 C 10.175781 28.175781 11.507812 28.730469 12.902344 29.058594 L 12.902344 31.484375 C 12.902344 31.769531 13.132812 32 13.417969 32 L 18.582031 32 C 18.867188 32 19.097656 31.769531 19.097656 31.484375 L 19.097656 29.058594 C 20.492188 28.730469 21.824219 28.175781 23.042969 27.421875 L 24.757812 29.136719 C 24.960938 29.339844 25.289062 29.339844 25.488281 29.136719 L 29.136719 25.488281 C 29.339844 25.285156 29.339844 24.957031 29.136719 24.757812 L 27.421875 23.042969 C 28.175781 21.824219 28.730469 20.492188 29.058594 19.097656 L 31.484375 19.097656 C 31.769531 19.097656 32 18.867188 32 18.582031 L 32 13.417969 C 32 13.132812 31.769531 12.902344 31.484375 12.902344 Z M 30.96875 18.066406 L 28.644531 18.066406 C 28.398438 18.0625 28.1875 18.238281 28.140625 18.476562 C 27.824219 20.03125 27.210938 21.507812 26.332031 22.828125 C 26.195312 23.03125 26.222656 23.304688 26.398438 23.480469 L 28.042969 25.125 L 25.125 28.042969 L 23.480469 26.398438 C 23.304688 26.222656 23.03125 26.195312 22.828125 26.332031 C 21.507812 27.210938 20.03125 27.824219 18.476562 28.140625 C 18.238281 28.1875 18.0625 28.398438 18.066406 28.644531 L 18.066406 30.96875 L 13.933594 30.96875 L 13.933594 28.644531 C 13.9375 28.398438 13.761719 28.1875 13.523438 28.140625 C 11.96875 27.824219 10.492188 27.210938 9.171875 26.332031 C 8.96875 26.195312 8.695312 26.222656 8.519531 26.398438 L 6.875 28.042969 L 3.957031 25.125 L 5.601562 23.480469 C 5.773438 23.304688 5.800781 23.035156 5.667969 22.828125 C 4.789062 21.507812 4.175781 20.03125 3.859375 18.476562 C 3.8125 18.238281 3.601562 18.066406 3.355469 18.066406 L 1.03125 18.066406 L 1.03125 13.933594 L 3.355469 13.933594 C 3.601562 13.9375 3.8125 13.761719 3.859375 13.523438 C 4.175781 11.96875 4.789062 10.492188 5.667969 9.171875 C 5.804688 8.96875 5.777344 8.695312 5.601562 8.519531 L 3.957031 6.875 L 6.875 3.957031 L 8.519531 5.601562 C 8.695312 5.773438 8.96875 5.800781 9.171875 5.667969 C 10.492188 4.789062 11.96875 4.175781 13.523438 3.859375 C 13.761719 3.8125 13.933594 3.601562 13.933594 3.355469 L 13.933594 1.03125 L 18.066406 1.03125 L 18.066406 3.355469 C 18.0625 3.601562 18.238281 3.8125 18.476562 3.859375 C 20.03125 4.175781 21.507812 4.789062 22.828125 5.667969 C 23.03125 5.804688 23.304688 5.777344 23.476562 5.601562 L 25.125 3.957031 L 28.042969 6.875 L 26.398438 8.519531 C 26.222656 8.695312 26.195312 8.96875 26.332031 9.171875 C 27.210938 10.492188 27.824219 11.96875 28.140625 13.523438 C 28.1875 13.761719 28.398438 13.9375 28.644531 13.933594 L 30.96875 13.933594 Z M 30.96875 18.066406 "/>
<path style=" stroke:none;fill-rule:nonzero;fill:rgb(100%,100%,100%);fill-opacity:1;" d="M 16 10.324219 C 12.863281 10.324219 10.324219 12.863281 10.324219 16 C 10.324219 19.136719 12.863281 21.675781 16 21.675781 C 19.136719 21.675781 21.675781 19.136719 21.675781 16 C 21.671875 12.867188 19.132812 10.328125 16 10.324219 Z M 16 20.644531 C 13.433594 20.644531 11.355469 18.566406 11.355469 16 C 11.355469 13.433594 13.433594 11.355469 16 11.355469 C 18.566406 11.355469 20.644531 13.433594 20.644531 16 C 20.640625 18.5625 18.5625 20.640625 16 20.644531 Z M 16 20.644531 "/>
</g>
</svg>
