<?xml version="1.0" encoding="UTF-8"?>
<svg xmlns="http://www.w3.org/2000/svg" xmlns:xlink="http://www.w3.org/1999/xlink" width="32pt" height="32pt" viewBox="0 0 32 32" version="1.1">
<g id="surface1">
<path style=" stroke:none;fill-rule:nonzero;fill:rgb(100%,100%,100%);fill-opacity:1;" d="M 16 0 C 7.164062 0 0 7.164062 0 16 C 0.0117188 24.832031 7.167969 31.988281 16 32 C 24.835938 32 32 24.835938 32 16 C 32 7.164062 24.835938 0 16 0 Z M 16 30.96875 C 7.734375 30.96875 1.03125 24.265625 1.03125 16 C 1.042969 7.738281 7.738281 1.042969 16 1.03125 C 24.265625 1.03125 30.96875 7.734375 30.96875 16 C 30.96875 24.265625 24.265625 30.96875 16 30.96875 Z M 16 30.96875 "/>
<path style=" stroke:none;fill-rule:nonzero;fill:rgb(100%,100%,100%);fill-opacity:1;" d="M 25.804688 15.484375 L 6.195312 15.484375 C 5.910156 15.484375 5.675781 15.714844 5.675781 16 C 5.675781 16.285156 5.910156 16.515625 6.195312 16.515625 L 25.804688 16.515625 C 26.089844 16.515625 26.324219 16.285156 26.324219 16 C 26.324219 15.714844 26.089844 15.484375 25.804688 15.484375 Z M 25.804688 15.484375 "/>
</g>
</svg>
