<?xml version="1.0" encoding="UTF-8"?>
<svg xmlns="http://www.w3.org/2000/svg" xmlns:xlink="http://www.w3.org/1999/xlink" width="32pt" height="32pt" viewBox="0 0 32 32" version="1.1">
<g id="surface1">
<path style=" stroke:none;fill-rule:nonzero;fill:rgb(100%,100%,100%);fill-opacity:1;" d="M 16 0 C 7.164062 0 0 7.164062 0 16 C 0 24.835938 7.164062 32 16 32 C 24.835938 32 32 24.835938 32 16 C 31.988281 7.167969 24.832031 0.0117188 16 0 Z M 16 30.96875 C 7.734375 30.96875 1.03125 24.265625 1.03125 16 C 1.03125 7.734375 7.734375 1.03125 16 1.03125 C 24.265625 1.03125 30.96875 7.734375 30.96875 16 C 30.957031 24.261719 24.261719 30.957031 16 30.96875 Z M 16 30.96875 "/>
<path style=" stroke:none;fill-rule:nonzero;fill:rgb(100%,100%,100%);fill-opacity:1;" d="M 23.894531 10.214844 L 13.417969 20.691406 L 8.105469 15.378906 C 7.902344 15.179688 7.574219 15.183594 7.378906 15.390625 C 7.183594 15.589844 7.183594 15.90625 7.378906 16.105469 L 13.054688 21.785156 C 13.257812 21.984375 13.582031 21.984375 13.785156 21.785156 L 24.621094 10.945312 C 24.820312 10.742188 24.816406 10.414062 24.609375 10.214844 C 24.410156 10.023438 24.09375 10.023438 23.894531 10.214844 Z M 23.894531 10.214844 "/>
</g>
</svg>
