<?xml version="1.0" encoding="UTF-8"?>
<svg xmlns="http://www.w3.org/2000/svg" xmlns:xlink="http://www.w3.org/1999/xlink" width="32pt" height="31pt" viewBox="0 0 32 31" version="1.1">
<g id="surface1">
<path style=" stroke:none;fill-rule:nonzero;fill:rgb(100%,100%,100%);fill-opacity:1;" d="M 28.933594 20.433594 L 29.824219 20.699219 C 26.863281 28.097656 18.269531 31.769531 10.632812 28.902344 C 6.453125 27.332031 3.230469 24.015625 1.867188 19.875 C 1.78125 19.617188 1.492188 19.472656 1.222656 19.554688 C 0.953125 19.636719 0.804688 19.917969 0.890625 20.175781 C 3.558594 28.257812 12.476562 32.714844 20.820312 30.132812 C 25.40625 28.714844 29.078125 25.351562 30.800781 20.996094 L 31.773438 21.289062 L 32 15.730469 Z M 28.933594 20.433594 "/>
<path style=" stroke:none;fill-rule:nonzero;fill:rgb(100%,100%,100%);fill-opacity:1;" d="M 2.171875 10.304688 C 5.132812 2.90625 13.726562 -0.769531 21.363281 2.097656 C 25.582031 3.683594 28.820312 7.046875 30.164062 11.230469 C 30.234375 11.4375 30.429688 11.578125 30.652344 11.578125 C 30.707031 11.578125 30.757812 11.570312 30.808594 11.554688 C 31.078125 11.472656 31.226562 11.195312 31.144531 10.933594 C 28.542969 2.835938 19.65625 -1.6875 11.296875 0.832031 C 6.65625 2.230469 2.933594 5.613281 1.195312 10.007812 L 0.226562 9.71875 L 0 15.273438 L 3.066406 10.574219 Z M 2.171875 10.304688 "/>
</g>
</svg>
