<?xml version="1.0" encoding="UTF-8"?>
<svg xmlns="http://www.w3.org/2000/svg" xmlns:xlink="http://www.w3.org/1999/xlink" width="32pt" height="32pt" viewBox="0 0 32 32" version="1.1">
<g id="surface1">
<path style=" stroke:none;fill-rule:nonzero;fill:rgb(100%,100%,100%);fill-opacity:1;" d="M 16 26.667969 C 10.121094 26.667969 5.332031 21.878906 5.332031 16 C 5.332031 10.121094 10.121094 5.332031 16 5.332031 C 21.878906 5.332031 26.667969 10.121094 26.667969 16 C 26.667969 21.878906 21.878906 26.667969 16 26.667969 Z M 16 6.667969 C 10.855469 6.667969 6.667969 10.855469 6.667969 16 C 6.667969 21.144531 10.855469 25.332031 16 25.332031 C 21.144531 25.332031 25.332031 21.144531 25.332031 16 C 25.332031 10.855469 21.144531 6.667969 16 6.667969 Z M 16 6.667969 "/>
<path style=" stroke:none;fill-rule:nonzero;fill:rgb(100%,100%,100%);fill-opacity:1;" d="M 16 4 C 15.632812 4 15.332031 3.699219 15.332031 3.332031 L 15.332031 0.667969 C 15.332031 0.300781 15.632812 0 16 0 C 16.367188 0 16.667969 0.300781 16.667969 0.667969 L 16.667969 3.332031 C 16.667969 3.699219 16.367188 4 16 4 Z M 16 4 "/>
<path style=" stroke:none;fill-rule:nonzero;fill:rgb(100%,100%,100%);fill-opacity:1;" d="M 16 32 C 15.632812 32 15.332031 31.699219 15.332031 31.332031 L 15.332031 28.667969 C 15.332031 28.300781 15.632812 28 16 28 C 16.367188 28 16.667969 28.300781 16.667969 28.667969 L 16.667969 31.332031 C 16.667969 31.699219 16.367188 32 16 32 Z M 16 32 "/>
<path style=" stroke:none;fill-rule:nonzero;fill:rgb(100%,100%,100%);fill-opacity:1;" d="M 29.277344 24.332031 C 29.164062 24.332031 29.050781 24.304688 28.945312 24.246094 L 26.636719 22.910156 C 26.316406 22.726562 26.207031 22.316406 26.394531 22 C 26.578125 21.679688 26.984375 21.574219 27.304688 21.753906 L 29.613281 23.089844 C 29.929688 23.273438 30.039062 23.683594 29.855469 24 C 29.734375 24.214844 29.507812 24.332031 29.277344 24.332031 Z M 29.277344 24.332031 "/>
<path style=" stroke:none;fill-rule:nonzero;fill:rgb(100%,100%,100%);fill-opacity:1;" d="M 5.027344 10.332031 C 4.917969 10.332031 4.800781 10.304688 4.695312 10.246094 L 2.386719 8.910156 C 2.070312 8.726562 1.960938 8.316406 2.144531 8 C 2.328125 7.679688 2.738281 7.574219 3.054688 7.753906 L 5.363281 9.089844 C 5.683594 9.273438 5.792969 9.683594 5.605469 10 C 5.484375 10.214844 5.257812 10.332031 5.027344 10.332031 Z M 5.027344 10.332031 "/>
<path style=" stroke:none;fill-rule:nonzero;fill:rgb(100%,100%,100%);fill-opacity:1;" d="M 26.972656 10.332031 C 26.742188 10.332031 26.515625 10.214844 26.394531 10 C 26.207031 9.683594 26.316406 9.273438 26.636719 9.089844 L 28.945312 7.753906 C 29.261719 7.574219 29.671875 7.679688 29.855469 8 C 30.042969 8.316406 29.933594 8.726562 29.613281 8.910156 L 27.304688 10.246094 C 27.199219 10.304688 27.082031 10.332031 26.972656 10.332031 Z M 26.972656 10.332031 "/>
<path style=" stroke:none;fill-rule:nonzero;fill:rgb(100%,100%,100%);fill-opacity:1;" d="M 2.722656 24.332031 C 2.492188 24.332031 2.265625 24.214844 2.144531 24 C 1.957031 23.683594 2.066406 23.273438 2.386719 23.089844 L 4.695312 21.753906 C 5.011719 21.574219 5.421875 21.679688 5.605469 22 C 5.792969 22.316406 5.683594 22.726562 5.363281 22.910156 L 3.054688 24.246094 C 2.949219 24.304688 2.835938 24.332031 2.722656 24.332031 Z M 2.722656 24.332031 "/>
</g>
</svg>
