<?xml version="1.0" encoding="utf-8"?>
<!-- Svg Vector Icons : http://www.onlinewebfonts.com/icon -->
<!DOCTYPE svg PUBLIC "-//W3C//DTD SVG 1.1//EN" "http://www.w3.org/Graphics/SVG/1.1/DTD/svg11.dtd">
<svg version="1.1" xmlns="http://www.w3.org/2000/svg" xmlns:xlink="http://www.w3.org/1999/xlink" x="0px" y="0px" viewBox="0 0 256 256" enable-background="new 0 0 256 256" xml:space="preserve">
<metadata> Svg Vector Icons : http://www.onlinewebfonts.com/icon </metadata>
<g><g><g><path fill="rgb(99.215686%,45.490196%,42.352941%)" d="M116.7,10.3C88.9,13.2,64,24.9,44.4,44.5c-18.8,18.8-29.9,41.6-33.9,69c-0.8,5.5-0.8,23.6,0,29.1c3.9,27.4,15.1,50.3,33.9,69c18.7,18.7,41.7,30,69,33.9c5.4,0.8,23.6,0.8,29.1,0c22.6-3.2,42.9-11.8,59.6-25.4c23.8-19.2,38.8-46.1,43.3-77.5c0.8-5.5,0.8-23.6,0-29.1c-3.9-27.3-15.1-50.3-33.9-69c-18.3-18.3-40.6-29.5-66.9-33.5C138.8,10.1,122.6,9.6,116.7,10.3z M140.9,20.5c19.3,2.2,38.8,10.4,54.6,22.9c4.3,3.4,13.8,12.8,17.2,17.2c12.2,15.6,20,33.8,22.7,53.4c1,7.4,1,20.8,0,28.2c-6.8,48.9-44.4,86.6-93.3,93.3c-7.3,1-20.7,1-28.2,0C94.2,232.7,76,225,60.5,212.7c-4.3-3.4-13.8-12.8-17.2-17.2c-12.6-15.9-20.4-34.8-23-55c-0.7-5.6-0.7-19.8,0-25.3c2.5-19.5,9.6-37,21.3-52.7c4.4-5.9,15.1-16.6,21-21c17.7-13.2,37.3-20.4,59.8-21.9C126.1,19.5,136.3,19.9,140.9,20.5z"/><path fill="rgb(99.215686%,45.490196%,42.352941%)" d="M130.9,35c-3.1,1.3-2.9-6.1-2.9,93.1c0,99.5-0.3,91.7,3,93.1c2.9,1.2,15.3-0.3,23.8-3c15.4-4.8,30-13.6,42.1-25.4c16.2-15.8,25.9-34.2,28.7-54.1c1-7.1,0.6-19.5-0.7-26.1c-6.1-28.9-27-54.7-55.7-68.8c-10.9-5.3-20.2-8.1-30.8-9C132.2,34.2,132.7,34.2,130.9,35z M145.1,45.5c2.4,0.5,2.5,0.6,2.7,2l0.1,1.5h4.8h4.8v5.1v5.1h4.8h4.8l0.1-2.8l0.1-2.8l4.4,2.7l4.4,2.6l-4.5,0.1l-4.5,0.1v4.8v4.8h5.1h5.1v-4.4v-4.4l1.4,0.8c2.9,1.7,12,9.9,15.9,14.3c3.8,4.3,9.9,12.5,9.9,13.2c0,0.2-1.8,0.4-3.9,0.4h-3.9v4.8v4.8h5.1h5l0.1-2.9l0.1-2.9l1.3,2.4c1.6,3,1.6,3.4-0.1,3.4H207v4.9v4.8h3.2c3.7,0,3.6-0.1,4.8,5.2c1.2,5.2,1.4,4.9-3.7,4.9H207v4.9v4.8h4.9h4.9l-0.3,4.5c-0.2,2.5-0.5,4.7-0.6,4.8c-0.1,0.2-2.2,0.4-4.6,0.4H207v5.1v5.1h3.3h3.3l-0.3,1.2c-0.1,0.7-0.9,2.9-1.7,4.8c-1.3,3.5-1.4,3.6-3,3.6H207v3c0,2.3-0.3,3.5-1,4.8l-1,1.8h-4.1h-4.1l0.1,5.2l0.1,5.2l-4.9-0.1l-5-0.1v4.8c0,4.3,0.1,4.9,0.8,4.9c0.6,0,0.7,0.1,0.2,0.6c-0.5,0.4-0.6,0.4-0.8,0c-0.1-0.4-1.6-0.6-5-0.6h-4.8l-0.1,4.7l-0.1,4.8l-4.9,0.1l-5,0.1v2.8v2.8l-4.3,2.1c-2.4,1.1-4.5,2-4.9,2c-0.3,0-0.5-1.5-0.5-4.9v-4.8h-4.8h-4.9v5.1v5.1l4.5,0h4.5l-3,1.1c-1.7,0.6-3.7,1.2-4.5,1.4c-1.3,0.3-1.4,0.2-1.4-1.1V207h-5.1h-5.1v-5.1v-5.1h5.1h5.1V192v-4.9h-5.1h-5.1v-4.8v-4.8h5.1h5.1v-5.1v-5.1h-5.1h-5.1v-4.8v-4.9h5.1h5.1v-4.8v-4.8h-5.1h-5.1v-5.1v-5.1h5.1h5.1v-4.8V128h-5.1h-5.1v-4.8v-4.9h5.1h5.1v-5.1v-5.1h-5.1h-5.1v-4.9v-4.8h5.1h5.1v-4.8v-4.9h-5.1h-5.1v-5.1v-5.1h5.1h5.1v-4.9v-4.8h-5.1h-5.1v-4.9v-4.8h5.1h5.1v-5.1V49h-5.1h-5.1v-2.3v-2.4l2.4,0.3C141.4,44.9,143.7,45.3,145.1,45.5z"/><path fill="rgb(99.215686%,45.490196%,42.352941%)" d="M147.9,64.1v4.9h4.8h4.9v4.8v4.9h-4.9h-4.8v5.1v5.1h4.8h4.9v4.8v4.9h-4.9h-4.8v4.8v4.8h4.8h4.9v5.1v5.1h-4.9h-4.8v4.8v4.8h4.8h4.9v4.9v4.8h-4.9h-4.8v5.1v5.1h4.8h4.9v4.9v4.8h-4.9h-4.8v4.9v4.8h4.8h4.9v5.1v5.1h-4.9h-4.8v4.8v4.8h4.8h4.9v4.9v4.8h4.8h4.9V192v-4.9h5.1h5.1v-4.8v-4.8h4.8h4.8v-5.1v-5.1h4.9h4.8v-4.8v-4.9h5.1h5.1v-4.8v-4.9h-5.1h-5.1v-5.1v-5.1h5.1h5.1v-4.8V128h-5.1h-5.1v-4.8v-4.9h5.1h5.1v-5.1v-5.1h-5.1h-5.1v-4.9v-4.8H192h-4.9v-4.8v-4.9h4.9h4.8v-5.1v-5.1H192h-4.9v-4.9v-4.8h-4.8h-4.9v4.8v4.9h-5.1h-5.1v-4.9v-4.8h-4.8h-4.9v-4.9v-4.8h-4.8h-4.9L147.9,64.1L147.9,64.1z M167.3,83.7v5.1h5.1h5.1v-5.1v-5.1h4.8h4.8v5.1v5.1h-4.8h-4.9v4.8v4.8h4.9h4.8v4.9v4.8h4.9h4.8v5.1v5.1H192h-4.9v4.8v4.8h4.9h4.8v4.9v4.8H192h-4.9v5.1v5.1h4.9h4.8v4.9v4.8H192h-4.9v4.9v4.8h-4.8h-4.9v5.1v5.1h-5.1h-5.1v4.8v4.8h-4.8h-4.9v-4.8v-4.8h4.9h4.8v-5.1v-5.1h-4.8h-4.9v-4.8v-4.9h4.9h4.8v-4.8v-4.9h-4.8h-4.9v-5.1v-5.1h4.9h4.8v-4.8V128h-4.8h-4.9v-4.8v-4.9h4.9h4.8v-5.1v-5.1h-4.8h-4.9v-4.9v-4.8h4.9h4.8v-4.8v-4.9h-4.8h-4.9v-5.1v-5.1h4.9h4.8L167.3,83.7L167.3,83.7z"/><path fill="rgb(99.215686%,45.490196%,42.352941%)" d="M167.3,103.3v4.8h5.1h5.1v5.1v5.1h-5.1h-5.1v4.8v4.8h5.1h5.1v4.9v4.8h-5.1h-5.1v5.1v5.1h5.1h5.1v4.9v4.8h-5.1h-5.1v4.9v4.8h5.1h5.1v-4.8v-4.9h4.8h4.8v-4.8v-4.9h-4.8h-4.9v-5.1v-5.1h4.9h4.8v-4.8V128h-4.8h-4.9v-4.8v-4.9h4.9h4.8v-5.1v-5.1h-4.8h-4.9v-4.9v-4.8h-5.1h-5.1L167.3,103.3L167.3,103.3z"/></g></g></g>
</svg>