<?xml version="1.0" encoding="utf-8"?>
<!-- Svg Vector Icons : http://www.onlinewebfonts.com/icon -->
<!DOCTYPE svg PUBLIC "-//W3C//DTD SVG 1.1//EN" "http://www.w3.org/Graphics/SVG/1.1/DTD/svg11.dtd">
<svg version="1.1" xmlns="http://www.w3.org/2000/svg" xmlns:xlink="http://www.w3.org/1999/xlink" x="0px" y="0px" viewBox="0 0 256 256" enable-background="new 0 0 256 256" xml:space="preserve">
<metadata> Svg Vector Icons : http://www.onlinewebfonts.com/icon </metadata>
<g><g><g><path fill="#FFF" d="M11.6,41.1L10,42.6V128v85.4l1.6,1.6l1.6,1.6H128h114.9l1.6-1.6l1.6-1.6V128V42.6l-1.6-1.6l-1.6-1.6H128H13.1L11.6,41.1z M26.8,49.8c2,0.8,3,2.4,3,4.4c0,3.3-3.2,5.6-6.3,4.6c-4.3-1.4-4.7-7.2-0.5-9C24.9,49,24.9,49,26.8,49.8z M46.6,49.8c1.6,0.7,3,2.7,3,4.4c0,2.9-3.1,5.3-6,4.8c-3.3-0.7-4.8-5.1-2.7-7.7C42.6,49.2,44.2,48.8,46.6,49.8z M66.5,49.9c3,1.4,3.7,5.3,1.3,7.7c-2.6,2.6-6.7,1.6-8-1.9c-0.6-1.7-0.6-2.1,0.1-3.5c0.5-1,1.4-1.9,2.3-2.3C64.1,49,64.6,49,66.5,49.9z M105.6,49.8c1.6,0.7,3,2.7,3,4.4c0,2.9-3.1,5.3-6,4.8c-3.3-0.7-4.8-5.1-2.7-7.7C101.6,49.2,103.2,48.8,105.6,49.8z M37.8,60.2c1.8,1.4,2.4,3.7,1.5,5.7c-0.7,1.7-2.7,3.1-4.4,3.1c-1.6,0-3.6-1.3-4.4-2.8C28.2,61.8,33.9,57.2,37.8,60.2z M58,60.7c2,2,1.9,4.7-0.2,6.8c-1.2,1.2-1.9,1.6-3.3,1.6c-2.3,0-4.8-2.4-4.8-4.6c0-3,2-5,5-5.1C56.2,59.3,56.9,59.6,58,60.7z M87.5,60.7c2,2,1.9,4.7-0.2,6.8C86.1,68.6,85.3,69,84,69c-1.3,0-2.1-0.4-3.3-1.6c-1.8-1.8-2-3.5-0.9-5.8c0.9-1.8,1.9-2.3,4.3-2.3C85.7,59.3,86.4,59.6,87.5,60.7z M146.5,60.7c2,2,1.9,4.7-0.2,6.8c-1.2,1.2-1.9,1.6-3.3,1.6c-1.3,0-2.1-0.4-3.3-1.6c-1.8-1.8-2-3.5-0.9-5.8c0.9-1.8,1.9-2.3,4.3-2.3C144.7,59.3,145.4,59.6,146.5,60.7z M205.5,60.7c3.1,3.1,0.7,8.3-3.7,8.3c-2,0-4.6-2.6-4.6-4.6c0-1.8,1.1-4,2.2-4.6c0.5-0.3,1.7-0.5,2.8-0.5C203.7,59.3,204.4,59.6,205.5,60.7z M27.5,69.8c4,2.4,2.5,8.9-2,8.9c-3.3,0-5.3-1.9-5.3-5.1c0-1,0.5-1.9,1.6-3C23.5,68.8,25.4,68.5,27.5,69.8z M47.8,70.2c1.8,1.5,2.3,3.9,1.2,5.9c-2.3,4.4-9,2.8-9-2.1c0-2.3,0.6-3.5,2.2-4.3C44.1,68.7,46.1,68.8,47.8,70.2z M66.7,69.7c0.8,0.4,1.7,1.4,2.1,2.3c2,4.7-3.8,8.8-7.7,5.3C56.8,73.5,61.5,67,66.7,69.7z M125.7,69.7c1.9,1,3,3.5,2.3,5.5c-1.2,3.5-5.2,4.6-7.9,2.1c-1.3-1.2-1.5-1.7-1.5-3.4C118.6,70,122.2,67.9,125.7,69.7z M175,69.8c4,2.4,2.5,8.9-2,8.9c-3.3,0-5.3-1.9-5.3-5.1c0-1,0.5-1.9,1.6-3C171,68.8,172.9,68.5,175,69.8z M37,79.4c3,1.4,3.7,5.3,1.3,7.7c-2.6,2.6-6.7,1.6-8-1.9c-0.6-1.7-0.6-2.1,0.1-3.5c0.5-1,1.4-1.9,2.3-2.3C34.6,78.5,35.1,78.5,37,79.4z M56.3,79.3c2,0.8,3,2.4,3,4.4c0,3.3-3.2,5.6-6.3,4.6c-4.3-1.4-4.7-7.2-0.5-9C54.4,78.5,54.4,78.5,56.3,79.3z M105.6,79.3c1.6,0.7,3,2.7,3,4.4c0,2.9-3.1,5.3-6,4.8c-3.3-0.7-4.8-5.1-2.7-7.7C101.6,78.7,103.2,78.3,105.6,79.3z M28.5,90.2c2,2,1.9,4.7-0.2,6.8c-1.2,1.2-1.9,1.6-3.3,1.6c-2.3,0-4.8-2.4-4.8-4.6c0-3,2-5,5-5.1C26.7,88.8,27.4,89.1,28.5,90.2z M47,89.3c4,1.8,3,8.2-1.4,9c-3.2,0.6-5.7-1.5-5.7-4.9C40,89.8,43.6,87.8,47,89.3z M67.3,89.7c1.8,1.4,2.4,3.7,1.5,5.7c-0.7,1.7-2.7,3.1-4.4,3.1c-1.6,0-3.6-1.3-4.4-2.8C57.7,91.3,63.4,86.7,67.3,89.7z M146.5,90.2c3.1,3.1,0.7,8.3-3.7,8.3c-2,0-4.6-2.6-4.6-4.6c0-1.8,1.1-4,2.2-4.6c0.5-0.3,1.7-0.5,2.8-0.5C144.7,88.8,145.4,89.1,146.5,90.2z M37.2,99.2c0.8,0.4,1.7,1.4,2.1,2.3c2,4.7-3.8,8.8-7.7,5.3C27.3,103,32,96.5,37.2,99.2z M57.8,100.1c4.1,4.1-0.2,10-5.6,7.6c-1.5-0.6-2.5-2.6-2.5-4.6c0-2.1,2.6-4.6,4.8-4.6C55.8,98.5,56.6,98.9,57.8,100.1z M86.5,99.3c4,2.4,2.5,8.9-2,8.9c-3.3,0-5.3-1.9-5.3-5.1c0-1,0.5-1.9,1.6-3C82.5,98.3,84.4,98,86.5,99.3z M125.7,99.2c1.9,1,3,3.5,2.3,5.5c-1.2,3.5-5.2,4.6-7.9,2.1c-1.3-1.2-1.5-1.7-1.5-3.4C118.6,99.5,122.2,97.4,125.7,99.2z M204.5,99.3c4,2.4,2.5,8.9-2,8.9c-3.3,0-5.3-1.9-5.3-5.1c0-1,0.5-1.9,1.6-3C200.5,98.3,202.4,98,204.5,99.3z M26.8,108.8c2,0.8,3,2.4,3,4.4c0,3.3-3.2,5.6-6.3,4.6c-4.3-1.4-4.7-7.2-0.5-9C24.9,108,24.9,108,26.8,108.8z M46.6,108.8c1.6,0.7,3,2.7,3,4.4c0,2.9-3.1,5.3-6,4.8c-3.3-0.7-4.8-5.1-2.7-7.7C42.6,108.2,44.2,107.8,46.6,108.8z M66.5,108.9c3,1.4,3.7,5.3,1.3,7.7c-2.6,2.6-6.7,1.6-8-1.9c-0.6-1.7-0.6-2.1,0.1-3.5c0.5-1,1.4-1.9,2.3-2.3C64.1,108,64.6,108,66.5,108.9z M105.6,108.8c1.6,0.7,3,2.7,3,4.4c0,2.9-3.1,5.3-6,4.8c-3.3-0.7-4.8-5.1-2.7-7.7C101.6,108.2,103.2,107.8,105.6,108.8z M174.6,108.9c1.8,0.9,2.8,2.4,2.8,4.4c0,3.3-3.2,5.6-6.3,4.6c-4.3-1.4-4.7-7.2-0.5-9C172.4,108,172.9,108,174.6,108.9z M37.8,119.2c1.8,1.4,2.4,3.7,1.5,5.7c-0.7,1.7-2.7,3.1-4.4,3.1c-1.6,0-3.6-1.3-4.4-2.8C28.2,120.8,33.9,116.2,37.8,119.2z M58,119.7c2,2,1.9,4.7-0.2,6.8c-1.2,1.2-1.9,1.6-3.3,1.6c-1.3,0-2.1-0.4-3.3-1.6c-1.8-1.8-2-3.5-0.9-5.8c0.9-1.8,1.9-2.3,4.3-2.3C56.2,118.3,56.9,118.6,58,119.7z M146.5,119.7c3.1,3.1,0.7,8.3-3.7,8.3c-2,0-4.6-2.6-4.6-4.6c0-1.8,1.1-4,2.2-4.6c0.5-0.3,1.7-0.5,2.8-0.5C144.7,118.3,145.4,118.6,146.5,119.7z M27.5,128.8c4,2.4,2.5,8.9-2,8.9c-3.3,0-5.3-1.9-5.3-5.1c0-1,0.5-1.9,1.6-3C23.5,127.8,25.4,127.5,27.5,128.8z M47.8,129.2c1.8,1.5,2.3,3.9,1.2,5.9c-2.3,4.4-9,2.8-9-2.1c0-2.3,0.6-3.5,2.2-4.3C44.1,127.7,46.1,127.8,47.8,129.2z M66.7,128.7c1.9,1,3,3.5,2.3,5.5c-1.2,3.5-5.2,4.6-7.9,2.1c-1.3-1.2-1.5-1.7-1.5-3.4C59.6,129,63.2,126.9,66.7,128.7z M125.7,128.7c1.9,1,3,3.5,2.3,5.5c-1.2,3.5-5.2,4.6-7.9,2.1c-1.3-1.2-1.5-1.7-1.5-3.4C118.6,129,122.2,126.9,125.7,128.7z M37,138.4c1.9,0.9,3.2,3.4,2.8,5.3c-0.4,1.7-2.2,3.5-3.9,3.9c-2.7,0.6-6-2.1-6-4.8c0-1.7,1.4-3.7,2.9-4.4C34.6,137.5,35.1,137.5,37,138.4z M56.6,138.4c1.8,0.9,2.8,2.4,2.8,4.4c0,3.3-3.2,5.6-6.3,4.6c-4.3-1.4-4.7-7.2-0.5-9C54.4,137.5,54.9,137.5,56.6,138.4z M85.8,138.3c2,0.8,3,2.4,3,4.4c0,3.3-3.2,5.6-6.3,4.6c-4.3-1.4-4.7-7.2-0.5-9C83.9,137.5,83.9,137.5,85.8,138.3z M105.6,138.3c1.6,0.7,3,2.7,3,4.4c0,2.9-3.1,5.3-6,4.8c-3.3-0.7-4.8-5.1-2.7-7.7C101.6,137.7,103.2,137.3,105.6,138.3z M204.1,138.4c1.8,0.9,2.8,2.4,2.8,4.4c0,3.3-3.2,5.6-6.3,4.6c-4.3-1.4-4.7-7.2-0.5-9C201.9,137.5,202.4,137.5,204.1,138.4z M28.5,149.2c3.1,3.1,0.7,8.3-3.7,8.3c-2,0-4.6-2.6-4.6-4.6c0-1.8,1.1-4,2.2-4.6c0.5-0.3,1.7-0.5,2.8-0.5C26.7,147.8,27.4,148.1,28.5,149.2z M47,148.3c4,1.8,3,8.2-1.4,9c-3.2,0.6-5.7-1.5-5.7-4.9C40,148.8,43.6,146.8,47,148.3z M67.3,148.7c1.8,1.4,2.4,3.7,1.5,5.7c-0.7,1.7-2.7,3.1-4.4,3.1c-1.6,0-3.6-1.3-4.4-2.8C57.7,150.3,63.4,145.7,67.3,148.7z M146.5,149.2c3.1,3.1,0.7,8.3-3.7,8.3c-2,0-4.6-2.6-4.6-4.6c0-1.8,1.1-4,2.2-4.6c0.5-0.3,1.7-0.5,2.8-0.5C144.7,147.8,145.4,148.1,146.5,149.2z M176,149.2c3.1,3.1,0.7,8.3-3.7,8.3c-2,0-4.6-2.6-4.6-4.6c0-1.8,1.1-4,2.2-4.6c0.5-0.3,1.7-0.5,2.8-0.5C174.2,147.8,174.9,148.1,176,149.2z M37.2,158.2c1.9,1,3,3.5,2.3,5.5c-1.2,3.5-5.2,4.6-7.9,2.1c-1.3-1.2-1.5-1.7-1.5-3.4C30.1,158.5,33.7,156.4,37.2,158.2z M57,158.3c4,2.4,2.5,8.9-2,8.9c-3.3,0-5.3-1.9-5.3-5.1c0-1,0.5-1.9,1.6-3C53,157.3,54.9,157,57,158.3z M125.7,158.2c1.9,1,3,3.5,2.3,5.5c-1.2,3.5-5.2,4.6-7.9,2.1c-1.3-1.2-1.5-1.7-1.5-3.4C118.6,158.5,122.2,156.4,125.7,158.2z M27.1,167.9c1.8,0.9,2.8,2.4,2.8,4.4c0,3.3-3.2,5.6-6.3,4.6c-4.3-1.4-4.7-7.2-0.5-9C24.9,167,25.4,167,27.1,167.9z M46.6,167.8c1.6,0.7,3,2.7,3,4.4c0,2.9-3.1,5.3-6,4.8c-3.3-0.7-4.8-5.1-2.7-7.7C42.6,167.2,44.2,166.8,46.6,167.8z M66.5,167.9c3.7,1.8,3.6,7-0.1,8.8c-4.1,2-8.5-2.6-6.4-6.7c0.7-1.3,2.8-2.7,4.3-2.8C64.7,167.2,65.6,167.5,66.5,167.9z M105.6,167.8c1.6,0.7,3,2.7,3,4.4c0,2.9-3.1,5.3-6,4.8c-3.3-0.7-4.8-5.1-2.7-7.7C101.6,167.2,103.2,166.8,105.6,167.8z M37.8,178.2c1.8,1.4,2.4,3.7,1.5,5.7c-0.7,1.7-2.7,3.1-4.4,3.1c-1.6,0-3.6-1.3-4.4-2.8C28.2,179.8,33.9,175.2,37.8,178.2z M58,178.7c3.1,3.1,0.7,8.3-3.7,8.3c-2,0-4.6-2.6-4.6-4.6c0-1.8,1.1-4,2.2-4.6c0.5-0.3,1.7-0.5,2.8-0.5C56.2,177.3,56.9,177.6,58,178.7z M87.5,178.7c3.1,3.1,0.7,8.3-3.7,8.3c-2,0-4.6-2.6-4.6-4.6c0-1.8,1.1-4,2.2-4.6c0.5-0.3,1.7-0.5,2.8-0.5C85.7,177.3,86.4,177.6,87.5,178.7z M146.5,178.7c3.1,3.1,0.7,8.3-3.7,8.3c-2,0-4.6-2.6-4.6-4.6c0-1.8,1.1-4,2.2-4.6c0.5-0.3,1.7-0.5,2.8-0.5C144.7,177.3,145.4,177.6,146.5,178.7z M205.5,178.7c3.1,3.1,0.7,8.3-3.7,8.3c-2,0-4.6-2.6-4.6-4.6c0-1.8,1.1-4,2.2-4.6c0.5-0.3,1.7-0.5,2.8-0.5C203.7,177.3,204.4,177.6,205.5,178.7z M27.5,187.8c4,2.4,2.5,8.9-2,8.9c-3.3,0-5.3-1.9-5.3-5.1c0-1,0.5-1.9,1.6-3C23.5,186.8,25.4,186.5,27.5,187.8z M47.8,188.2c1.8,1.5,2.3,3.9,1.2,5.9c-2.3,4.4-9,2.8-9-2.1c0-2.3,0.6-3.5,2.2-4.3C44.1,186.7,46.1,186.8,47.8,188.2z M66.7,187.7c1.9,1,3,3.5,2.3,5.5c-1.2,3.5-5.2,4.6-7.9,2.1c-1.3-1.2-1.5-1.7-1.5-3.4C59.6,188,63.2,185.9,66.7,187.7z M125.7,187.7c1.9,1,3,3.5,2.3,5.5c-1.2,3.5-5.2,4.6-7.9,2.1c-1.3-1.2-1.5-1.7-1.5-3.4C118.6,188,122.2,185.9,125.7,187.7z M175,187.8c4,2.4,2.5,8.9-2,8.9c-3.3,0-5.3-1.9-5.3-5.1c0-1,0.5-1.9,1.6-3C171,186.8,172.9,186.5,175,187.8z M37,197.4c3.7,1.8,3.6,7-0.1,8.8c-4.1,2-8.5-2.6-6.4-6.7c0.7-1.3,2.8-2.7,4.3-2.8C35.2,196.7,36.1,197,37,197.4z M56.6,197.4c1.8,0.9,2.8,2.4,2.8,4.4c0,3.3-3.2,5.6-6.3,4.6c-4.3-1.4-4.7-7.2-0.5-9C54.4,196.5,54.9,196.5,56.6,197.4z M105.6,197.3c1.6,0.7,3,2.7,3,4.4c0,2.9-3.1,5.3-6,4.8c-3.3-0.7-4.8-5.1-2.7-7.7C101.6,196.7,103.2,196.3,105.6,197.3z"/></g></g></g>
</svg>