<?xml version="1.0" encoding="UTF-8"?>
<svg xmlns="http://www.w3.org/2000/svg" xmlns:xlink="http://www.w3.org/1999/xlink" width="32pt" height="32pt" viewBox="0 0 32 32" version="1.1">
<g id="surface1">
<path style=" stroke:none;fill-rule:nonzero;fill:rgb(100%,100%,100%);fill-opacity:1;" d="M 10.667969 0 L 11.734375 0 L 11.734375 2.667969 L 10.667969 2.667969 Z M 10.667969 0 "/>
<path style=" stroke:none;fill-rule:nonzero;fill:rgb(100%,100%,100%);fill-opacity:1;" d="M 19.734375 10.667969 L 22.402344 10.667969 L 22.402344 11.734375 L 19.734375 11.734375 Z M 19.734375 10.667969 "/>
<path style=" stroke:none;fill-rule:nonzero;fill:rgb(100%,100%,100%);fill-opacity:1;" d="M 0 10.667969 L 2.667969 10.667969 L 2.667969 11.734375 L 0 11.734375 Z M 0 10.667969 "/>
<path style=" stroke:none;fill-rule:nonzero;fill:rgb(100%,100%,100%);fill-opacity:1;" d="M 16.855469 4.789062 L 18.742188 2.902344 L 19.496094 3.660156 L 17.609375 5.542969 Z M 16.855469 4.789062 "/>
<path style=" stroke:none;fill-rule:nonzero;fill:rgb(100%,100%,100%);fill-opacity:1;" d="M 2.902344 18.742188 L 4.789062 16.855469 L 5.542969 17.609375 L 3.65625 19.496094 Z M 2.902344 18.742188 "/>
<path style=" stroke:none;fill-rule:nonzero;fill:rgb(100%,100%,100%);fill-opacity:1;" d="M 2.902344 3.660156 L 3.65625 2.902344 L 5.542969 4.789062 L 4.789062 5.542969 Z M 2.902344 3.660156 "/>
<path style=" stroke:none;fill-rule:nonzero;fill:rgb(100%,100%,100%);fill-opacity:1;" d="M 26.03125 17.140625 C 25.152344 14.132812 22.140625 11.949219 18.644531 11.753906 C 18.660156 11.558594 18.667969 11.378906 18.667969 11.199219 C 18.667969 7.082031 15.316406 3.734375 11.199219 3.734375 C 7.082031 3.734375 3.734375 7.082031 3.734375 11.199219 C 3.734375 14.15625 5.472656 16.785156 8.089844 17.980469 C 7.175781 18.546875 6.433594 19.335938 6.035156 20.261719 C 6.03125 20.261719 6.027344 20.261719 6.027344 20.261719 L 5.867188 20.265625 C 2.578125 20.265625 0 22.84375 0 26.132812 C 0 29.421875 2.578125 32 5.867188 32 L 24.554688 32 C 28.660156 31.839844 32 28.492188 32 24.535156 C 32 21.011719 29.457031 17.894531 26.03125 17.140625 Z M 4.800781 11.199219 C 4.800781 7.671875 7.671875 4.800781 11.199219 4.800781 C 14.730469 4.800781 17.597656 7.671875 17.597656 11.199219 C 17.597656 11.375 17.589844 11.5625 17.566406 11.753906 C 14.371094 11.972656 11.726562 14.042969 10.792969 17.085938 C 10.339844 17.125 9.902344 17.222656 9.476562 17.351562 C 6.714844 16.582031 4.800781 14.074219 4.800781 11.199219 Z M 24.535156 30.933594 L 5.867188 30.933594 C 3.175781 30.933594 1.066406 28.824219 1.066406 26.132812 C 1.066406 23.441406 3.175781 21.332031 5.867188 21.332031 L 6.050781 21.332031 C 6.109375 21.328125 6.167969 21.328125 6.226562 21.328125 C 6.269531 21.328125 6.316406 21.328125 6.355469 21.332031 C 6.605469 21.351562 6.832031 21.199219 6.90625 20.964844 C 7.429688 19.355469 9.238281 18.160156 11.207031 18.132812 C 11.449219 18.128906 11.65625 17.964844 11.714844 17.730469 C 12.476562 14.734375 14.996094 12.800781 18.132812 12.800781 C 21.488281 12.800781 24.410156 14.871094 25.082031 17.722656 C 25.128906 17.929688 25.300781 18.089844 25.511719 18.125 C 28.601562 18.65625 30.933594 21.410156 30.933594 24.535156 C 30.933594 27.925781 28.050781 30.796875 24.535156 30.933594 Z M 24.535156 30.933594 "/>
</g>
</svg>
