<?xml version="1.0" encoding="utf-8"?>
<!-- Svg Vector Icons : http://www.onlinewebfonts.com/icon -->
<!DOCTYPE svg PUBLIC "-//W3C//DTD SVG 1.1//EN" "http://www.w3.org/Graphics/SVG/1.1/DTD/svg11.dtd">
<svg version="1.1" xmlns="http://www.w3.org/2000/svg" xmlns:xlink="http://www.w3.org/1999/xlink" x="0px" y="0px" viewBox="0 0 256 256" enable-background="new 0 0 256 256" xml:space="preserve">
<metadata> Svg Vector Icons : http://www.onlinewebfonts.com/icon </metadata>
<g><g><path fill="#FFF" d="M215.7,142.4c0,48.5-39.2,87.7-87.7,87.7c-48.5,0-87.7-39.2-87.7-87.7S79.5,54.6,128,54.6c6.1,0,11.8,0.6,17.5,1.9l-22.6,22.6l11.2,11.2l40.2-40.2L134.1,10l-11.2,11.2l18.5,18.5c-4.5-0.3-8.9-1-13.4-1c-57.1,0-103.6,46.6-103.6,103.6C24.4,199.4,70.9,246,128,246c57.1,0,103.6-46.6,103.6-103.6H215.7z"/></g></g>
</svg>